<svg width="24" height="25" viewBox="0 0 24 25" fill="none" xmlns="http://www.w3.org/2000/svg">
<path d="M11.19 1.86L4.19 4.97C3.47 5.29 3 6.01 3 6.8V11.5C3 17.05 6.84 22.24 12 23.5C17.16 22.24 21 17.05 21 11.5V6.8C21 6.01 20.53 5.29 19.81 4.97L12.81 1.86C12.3 1.63 11.7 1.63 11.19 1.86ZM9.29 16.79L6.7 14.2C6.60742 14.1074 6.53398 13.9975 6.48387 13.8765C6.43377 13.7556 6.40798 13.6259 6.40798 13.495C6.40798 13.3641 6.43377 13.2344 6.48387 13.1135C6.53398 12.9925 6.60742 12.8826 6.7 12.79C6.79258 12.6974 6.90249 12.624 7.02346 12.5739C7.14442 12.5238 7.27407 12.498 7.405 12.498C7.53593 12.498 7.66558 12.5238 7.78654 12.5739C7.90751 12.624 8.01742 12.6974 8.11 12.79L10 14.67L15.88 8.79C15.9726 8.69742 16.0825 8.62398 16.2035 8.57387C16.3244 8.52377 16.4541 8.49798 16.585 8.49798C16.7159 8.49798 16.8456 8.52377 16.9665 8.57387C17.0875 8.62398 17.1974 8.69742 17.29 8.79C17.3826 8.88258 17.456 8.99249 17.5061 9.11346C17.5562 9.23442 17.582 9.36407 17.582 9.495C17.582 9.62593 17.5562 9.75558 17.5061 9.87654C17.456 9.99751 17.3826 10.1074 17.29 10.2L10.7 16.79C10.6075 16.8827 10.4976 16.9563 10.3766 17.0064C10.2557 17.0566 10.126 17.0824 9.995 17.0824C9.86403 17.0824 9.73435 17.0566 9.61338 17.0064C9.4924 16.9563 9.38251 16.8827 9.29 16.79Z" fill="black"/>
</svg>
