<svg width="14" height="15" viewBox="0 0 14 15" fill="none" xmlns="http://www.w3.org/2000/svg">
<path d="M8.87817 7.54028L6.39908 10.0194L5.12183 8.74213C4.95093 8.57123 4.67407 8.57123 4.50317 8.74213C4.33228 8.91302 4.33228 9.18988 4.50317 9.36078L6.08975 10.9474C6.1752 11.0328 6.28714 11.0755 6.39908 11.0755C6.51102 11.0755 6.62296 11.0328 6.7084 10.9474L9.49683 8.15894C9.66772 7.98804 9.66772 7.71118 9.49683 7.54028C9.32593 7.36938 9.04907 7.36938 8.87817 7.54028Z" fill="#121212"/>
<path d="M10.9375 2.23248H10.2812V1.8125C10.2812 1.57089 10.0854 1.375 9.84375 1.375C9.60214 1.375 9.40625 1.57089 9.40625 1.8125V2.23248H4.59375V1.8125C4.59375 1.57089 4.39786 1.375 4.15625 1.375C3.91464 1.375 3.71875 1.57089 3.71875 1.8125V2.23248H3.0625C1.85638 2.23248 0.875 3.21387 0.875 4.41998V11.4375C0.875 12.6436 1.85638 13.625 3.0625 13.625H10.9375C12.1436 13.625 13.125 12.6436 13.125 11.4375V4.41998C13.125 3.21387 12.1436 2.23248 10.9375 2.23248ZM1.75 4.41998C1.75 3.69623 2.33875 3.10748 3.0625 3.10748H3.71875V3.52725C3.71875 3.76886 3.91464 3.96475 4.15625 3.96475C4.39786 3.96475 4.59375 3.76886 4.59375 3.52725V3.10748H9.40625V3.52725C9.40625 3.76886 9.60214 3.96475 9.84375 3.96475C10.0854 3.96475 10.2812 3.76886 10.2812 3.52725V3.10748H10.9375C11.6613 3.10748 12.25 3.69623 12.25 4.41998V4.86176H1.75V4.41998ZM10.9375 12.75H3.0625C2.33875 12.75 1.75 12.1613 1.75 11.4375V5.73676H12.25V11.4375C12.25 12.1613 11.6613 12.75 10.9375 12.75Z" fill="#121212"/>
</svg>
