<svg width="14" height="15" viewBox="0 0 14 15" fill="none" xmlns="http://www.w3.org/2000/svg">
<path d="M7.00033 13.7712C5.76008 13.7712 4.54767 13.4034 3.51644 12.7143C2.48521 12.0253 1.68146 11.0459 1.20683 9.90007C0.732209 8.75423 0.608026 7.49337 0.849987 6.27695C1.09195 5.06053 1.68919 3.94317 2.56618 3.06618C3.44317 2.18919 4.56053 1.59195 5.77695 1.34999C6.99337 1.10803 8.25423 1.23221 9.40007 1.70683C10.5459 2.18146 11.5253 2.98521 12.2143 4.01644C12.9034 5.04767 13.2712 6.26008 13.2712 7.50033C13.2693 9.16289 12.608 10.7568 11.4324 11.9324C10.2568 13.108 8.66289 13.7693 7.00033 13.7712ZM7.00033 2.1045C5.93313 2.1045 4.8899 2.42096 4.00256 3.01386C3.11522 3.60676 2.42363 4.44947 2.01523 5.43543C1.60683 6.42139 1.49998 7.50632 1.70817 8.553C1.91637 9.59969 2.43028 10.5611 3.1849 11.3158C3.93952 12.0704 4.90097 12.5843 5.94765 12.7925C6.99434 13.0007 8.07927 12.8938 9.06523 12.4854C10.0512 12.077 10.8939 11.3854 11.4868 10.4981C12.0797 9.61075 12.3962 8.56752 12.3962 7.50033C12.3946 6.06974 11.8256 4.69818 10.8141 3.6866C9.80247 2.67502 8.43092 2.10604 7.00033 2.1045Z" fill="black"/>
<path d="M7.00033 13.7712C5.20074 13.7712 4.22949 10.5401 4.22949 7.50033C4.22949 4.46058 5.20074 1.22949 7.00033 1.22949C8.79991 1.22949 9.77116 4.46058 9.77116 7.50033C9.77116 10.5401 8.79991 13.7712 7.00033 13.7712ZM7.00033 2.10449C6.10549 2.10449 5.10449 4.41216 5.10449 7.50033C5.10449 10.5885 6.10549 12.8962 7.00033 12.8962C7.89516 12.8962 8.89616 10.5885 8.89616 7.50033C8.89616 4.41216 7.89516 2.10449 7.00033 2.10449Z" fill="black"/>
<path d="M12.5655 9.6875H1.43555C1.31951 9.6875 1.20823 9.64141 1.12619 9.55936C1.04414 9.47731 0.998047 9.36603 0.998047 9.25C0.998047 9.13397 1.04414 9.02269 1.12619 8.94064C1.20823 8.85859 1.31951 8.8125 1.43555 8.8125H12.5655C12.6816 8.8125 12.7929 8.85859 12.8749 8.94064C12.957 9.02269 13.003 9.13397 13.003 9.25C13.003 9.36603 12.957 9.47731 12.8749 9.55936C12.7929 9.64141 12.6816 9.6875 12.5655 9.6875Z" fill="black"/>
<path d="M12.5655 6.1875H1.43555C1.31951 6.1875 1.20823 6.14141 1.12619 6.05936C1.04414 5.97731 0.998047 5.86603 0.998047 5.75C0.998047 5.63397 1.04414 5.52269 1.12619 5.44064C1.20823 5.35859 1.31951 5.3125 1.43555 5.3125H12.5655C12.6816 5.3125 12.7929 5.35859 12.8749 5.44064C12.957 5.52269 13.003 5.63397 13.003 5.75C13.003 5.86603 12.957 5.97731 12.8749 6.05936C12.7929 6.14141 12.6816 6.1875 12.5655 6.1875Z" fill="black"/>
</svg>
