<svg width="14" height="15" viewBox="0 0 14 15" fill="none" xmlns="http://www.w3.org/2000/svg">
<path d="M8.6235 8.06654C8.55315 8.02959 8.4681 8.03464 8.40264 8.07976C8.27541 8.1674 8.15735 8.26026 8.05174 8.35572C7.4761 8.87611 6.9292 8.80568 6.90777 8.80262C6.89487 8.80059 6.88175 8.79965 6.86878 8.80007C6.64128 8.8059 6.23109 8.59802 5.79716 8.25722C5.73079 8.20511 5.66274 8.15544 5.59479 8.10958C5.52926 8.0653 5.44458 8.06083 5.37475 8.09797C5.30489 8.13508 5.26123 8.20773 5.26123 8.28685V9.02063C5.26123 9.08552 5.29076 9.14685 5.34136 9.18747C5.34734 9.19229 5.35357 9.19674 5.36 9.20084L6.87671 10.2143C6.87696 10.2145 6.87718 10.2147 6.87743 10.2149L6.88143 10.2175C6.91714 10.2412 6.95828 10.2531 6.99957 10.2531C7.03431 10.2531 7.06905 10.2447 7.10081 10.2277C7.1075 10.2241 7.11393 10.2202 7.1201 10.216C7.12082 10.2155 7.12154 10.215 7.12228 10.2145C7.12312 10.214 7.12396 10.2134 7.1248 10.2129L8.63793 9.20176C8.64401 9.1979 8.64994 9.19375 8.65565 9.1893C8.70756 9.14878 8.73791 9.08658 8.73791 9.02071V8.25591C8.73791 8.1764 8.69387 8.10353 8.6235 8.06654ZM8.31008 8.90623L6.99954 9.78194L5.68903 8.9062V8.71166C6.00814 8.94356 6.47755 9.228 6.86018 9.22797C6.86097 9.22797 6.86186 9.22797 6.86268 9.22797C6.99114 9.24218 7.64628 9.2808 8.31013 8.69844V8.90623H8.31008Z" fill="black" stroke="black" stroke-width="0.2"/>
<path d="M10.2583 3.10859C10.254 3.07508 10.1538 2.35192 9.47312 2.06665C9.49288 1.93964 9.49081 1.7764 9.41018 1.61759C9.3018 1.40415 9.08794 1.26506 8.7745 1.20412C8.76105 1.2015 8.74741 1.2002 8.7337 1.2002H5.86274C4.69697 1.2002 3.74854 2.14861 3.74854 3.31442V4.44097C3.74854 4.73447 3.84859 5.02069 4.0302 5.24683C4.12025 5.35896 4.23114 5.55479 4.24787 5.85086C4.2544 5.96646 4.35116 6.05578 4.46747 6.05257C4.58321 6.04931 4.67533 5.95452 4.67533 5.83875V4.37C4.82057 3.76933 5.31628 3.65243 5.4015 3.63664H6.33015C6.43939 3.63664 6.5468 3.61996 6.64947 3.58704C6.82605 3.53041 7.10619 3.42618 7.31014 3.34872C7.44659 3.29685 7.59766 3.29495 7.73547 3.34338L8.72965 3.69238C9.22666 3.87573 9.31537 4.31206 9.32636 4.3806V6.14333C9.32636 6.25529 9.41268 6.34817 9.52432 6.3565C9.52975 6.3569 9.53509 6.35712 9.54043 6.35712C9.64534 6.35709 9.73593 6.28022 9.75182 6.17488C9.75266 6.16937 9.83806 5.61768 10.1135 5.17596C10.2093 5.02219 10.26 4.84688 10.26 4.66897V3.13559C10.26 3.12658 10.2594 3.11756 10.2583 3.10859ZM9.83215 4.66887C9.83215 4.76442 9.80519 4.85921 9.75414 4.94349V4.36597C9.75414 4.35824 9.75372 4.35055 9.75288 4.34287C9.74952 4.31181 9.66113 3.57877 8.87573 3.29025C8.87477 3.28991 8.8738 3.28956 8.87284 3.28922L7.87716 2.93967C7.7649 2.90026 7.64745 2.88059 7.53008 2.88059C7.40386 2.88059 7.27772 2.90335 7.1582 2.94881C6.87265 3.05729 6.65152 3.13713 6.51881 3.17968C6.45844 3.19903 6.39496 3.20886 6.33012 3.20886H5.3842C5.37504 3.20886 5.36584 3.20945 5.35673 3.21061C5.32053 3.21531 4.46737 3.33663 4.25267 4.29896C4.24926 4.31426 4.24753 4.32987 4.24753 4.34554V4.78577C4.20095 4.67813 4.17629 4.56056 4.17629 4.44099V3.31447C4.17629 2.38459 4.93283 1.62805 5.86269 1.62805H8.7121C8.83007 1.65318 8.97343 1.70475 9.02782 1.80966C9.09441 1.93808 9.01855 2.1149 9.01848 2.11505C8.99113 2.17324 8.99145 2.24063 9.01925 2.29857C9.04707 2.35652 9.0995 2.39887 9.16202 2.41392C9.70658 2.545 9.81765 3.0673 9.83213 3.15178L9.83215 4.66887Z" fill="black" stroke="black" stroke-width="0.2"/>
<path d="M9.75294 4.34313C9.74958 4.31207 9.66119 3.57902 8.87579 3.29051C8.87483 3.29016 8.87386 3.28982 8.8729 3.28947L7.87721 2.93993C7.6442 2.85814 7.3889 2.8614 7.15823 2.94902C6.87268 3.0575 6.65156 3.13733 6.51884 3.17991C6.45847 3.19926 6.39499 3.20907 6.33015 3.20907H5.38424C5.37507 3.20907 5.36588 3.20966 5.35676 3.21082C5.32056 3.21552 4.4674 3.33684 4.2527 4.29917C4.24929 4.31446 4.24756 4.33008 4.24756 4.34574V6.18455C4.24756 6.18613 4.24758 6.18772 4.24761 6.1893C4.24902 6.25317 4.29421 7.76164 5.33647 8.45151L5.34186 8.45532C5.34633 8.45848 5.3508 8.46164 5.35547 8.46478C5.4149 8.50491 5.47458 8.54847 5.53294 8.59428C5.83658 8.83271 6.40878 9.22859 6.86018 9.22859C6.86102 9.22859 6.86181 9.22859 6.86268 9.22859C6.88719 9.23128 6.93095 9.23489 6.9903 9.23489C7.24612 9.23489 7.79192 9.16785 8.3386 8.67365C8.43034 8.59075 8.53351 8.50965 8.64535 8.43261L8.66133 8.42141C8.66655 8.41773 8.67176 8.41403 8.67715 8.41042C9.02481 8.17691 9.62694 7.57438 9.75336 6.16261C9.75393 6.15629 9.75422 6.14989 9.75422 6.14351V4.36623C9.7542 4.35852 9.75375 4.35083 9.75294 4.34313ZM9.32637 6.13385C9.20982 7.40794 8.66697 7.90186 8.4386 8.05524C8.43049 8.0607 8.42249 8.06633 8.41448 8.07197L8.40262 8.08032C8.27539 8.16796 8.15733 8.26082 8.05172 8.35628C7.47822 8.87474 6.9331 8.80674 6.90636 8.80298C6.89393 8.80113 6.88133 8.80034 6.86876 8.80068C6.64125 8.80652 6.23107 8.59863 5.79714 8.25783C5.73077 8.2057 5.66272 8.15603 5.59486 8.11024L5.5896 8.10654C5.58446 8.10288 5.57935 8.09925 5.57332 8.09524C4.73224 7.53856 4.67721 6.23583 4.67536 6.18146V4.37023C4.82112 3.76736 5.31989 3.65179 5.40119 3.63687H6.33018C6.43942 3.63687 6.54684 3.62019 6.6495 3.58728C6.82608 3.53064 7.10624 3.42641 7.31017 3.34895C7.44662 3.29708 7.5977 3.29518 7.7355 3.34361L8.72968 3.69261C9.22669 3.87596 9.3154 4.31229 9.3264 4.38083V6.13385H9.32637Z" fill="black" stroke="black" stroke-width="0.2"/>
<path d="M9.54364 9.23882C9.52147 9.18023 9.47475 9.13432 9.41579 9.11322L8.59565 8.81922C8.589 8.81685 8.5821 8.81472 8.57523 8.81304C8.5167 8.79839 8.45468 8.80914 8.40451 8.8427L6.88491 9.85812C6.88451 9.85839 6.88407 9.85867 6.88365 9.85896L7.00297 10.0364L6.88098 9.86077C6.8364 9.89025 6.80448 9.93544 6.79153 9.98728C6.78441 10.0157 6.78325 10.0455 6.78807 10.0744C6.79358 10.1075 6.80677 10.1388 6.82664 10.1659L7.9392 11.6811C7.97963 11.7362 8.04378 11.7684 8.11158 11.7684C8.11622 11.7684 8.12089 11.7682 8.12556 11.7679C8.19843 11.7631 8.26384 11.7216 8.29903 11.6575L9.53099 9.41764C9.56121 9.36274 9.56583 9.29736 9.54364 9.23882ZM8.08568 11.1578L7.30374 10.0928L8.55263 9.25824L9.03528 9.43128L8.08568 11.1578Z" fill="black" stroke="black" stroke-width="0.2"/>
<path d="M7.21009 10.0032C7.20004 9.94578 7.167 9.89496 7.11857 9.86246L5.59389 8.84365C5.54536 8.81118 5.48554 8.80006 5.42854 8.81271C5.41979 8.81464 5.41119 8.81716 5.40276 8.82018L4.58262 9.11417C4.52366 9.1353 4.47693 9.18121 4.45477 9.23977C4.43261 9.29836 4.4372 9.36369 4.4674 9.4186L5.69936 11.6585C5.73454 11.7225 5.79995 11.7641 5.87282 11.7689C5.87747 11.7692 5.88214 11.7693 5.88678 11.7693C5.95458 11.7693 6.01871 11.7371 6.05921 11.682L6.65368 10.8724C6.65415 10.8717 6.65461 10.8711 6.65508 10.8704L7.17179 10.1666C7.20629 10.1196 7.22012 10.0606 7.21009 10.0032ZM6.30887 10.6191C6.30836 10.6198 6.30786 10.6205 6.30734 10.6212L5.91265 11.1587L4.96305 9.43221L5.44573 9.2592L6.6946 10.0937L6.30887 10.6191Z" fill="black" stroke="black" stroke-width="0.2"/>
<path d="M13.3146 12.8913L13.0386 11.225C12.9517 10.6999 12.5867 10.2612 12.0862 10.0801L9.41672 9.11433C9.33441 9.08457 9.24242 9.1079 9.18425 9.17318C9.12608 9.23849 9.1135 9.33264 9.15255 9.41094L9.7099 10.5287L9.163 10.5371C9.08875 10.5383 9.02037 10.5778 8.98244 10.6416C8.94449 10.7055 8.94236 10.7844 8.97681 10.8502L9.20113 11.2785L6.90551 13.3785C6.90316 13.3807 6.90086 13.3829 6.89861 13.3851L6.85122 13.4325C6.78408 13.4997 6.76923 13.603 6.81482 13.6864L6.8165 13.6894C6.85403 13.758 6.92599 13.8006 7.00417 13.8006H12.5434C12.7735 13.8006 12.9908 13.7 13.1396 13.5245C13.2884 13.349 13.3522 13.1182 13.3146 12.8913ZM12.8134 13.2478C12.746 13.3273 12.6476 13.3729 12.5434 13.3729H7.54547L9.61148 11.483C9.68314 11.4175 9.70167 11.3119 9.6566 11.2259L9.51704 10.9595L10.0564 10.9512C10.1299 10.95 10.1976 10.9112 10.2358 10.8484C10.274 10.7856 10.2773 10.7076 10.2445 10.6418L9.7741 9.69849L11.9408 10.4824C12.296 10.6109 12.555 10.9222 12.6167 11.2948L12.8926 12.9611V12.9611C12.9096 13.0639 12.8808 13.1684 12.8134 13.2478Z" fill="black" stroke="black" stroke-width="0.2"/>
<path d="M7.15034 13.4351L7.14945 13.4342C7.14888 13.4336 7.14829 13.433 7.14774 13.4325L7.1003 13.3851C7.09808 13.3829 7.09578 13.3807 7.09345 13.3786L4.79783 11.2785L5.02218 10.8502C5.05665 10.7845 5.0545 10.7055 5.01657 10.6417C4.97861 10.5778 4.91026 10.5383 4.83601 10.5371L4.28906 10.5287L4.84641 9.41097C4.88546 9.33269 4.87285 9.23852 4.81471 9.17321C4.75657 9.1079 4.66445 9.08455 4.58224 9.11435L1.91276 10.0802C1.41224 10.2612 1.04727 10.6999 0.960319 11.225L0.684384 12.8913C0.6468 13.1183 0.710601 13.3491 0.859404 13.5246C1.00823 13.7 1.22555 13.8007 1.4556 13.8007H6.99956C7.08619 13.8007 7.16425 13.7484 7.19726 13.6684C7.2303 13.5883 7.21177 13.4962 7.15034 13.4351ZM1.45563 13.3729C1.35145 13.3729 1.25306 13.3273 1.1857 13.2479C1.11834 13.1684 1.08948 13.0639 1.10648 12.9611L1.38241 11.2949C1.44411 10.9222 1.7031 10.6109 2.0583 10.4824L4.22499 9.69852L3.75461 10.6418C3.72179 10.7076 3.72506 10.7856 3.76328 10.8484C3.80146 10.9112 3.86924 10.95 3.94275 10.9511L4.48207 10.9595L4.34251 11.2259C4.29746 11.3119 4.31599 11.4175 4.3876 11.483L6.45362 13.3729H1.45563Z" fill="black" stroke="black" stroke-width="0.2"/>
<path d="M7.72763 10.8008C7.74307 10.739 7.7302 10.6736 7.69252 10.6223L7.17198 9.91335C7.11727 9.83883 7.0208 9.8092 6.93298 9.83801C6.88557 9.85356 6.8465 9.88494 6.8205 9.92504L6.30948 10.6184C6.30217 10.6283 6.29567 10.6389 6.29016 10.65C6.25514 10.72 6.2612 10.8036 6.30592 10.8678L6.52354 11.1804L6.29171 12.6416C6.28428 12.6885 6.29268 12.7366 6.31556 12.7782L6.81218 13.6811C6.84976 13.7495 6.92162 13.792 6.9996 13.792C7.07761 13.792 7.14944 13.7495 7.18703 13.6811L7.68735 12.7715C7.7047 12.7399 7.71382 12.7045 7.71382 12.6685V12.6683C7.71382 12.6571 7.7129 12.6459 7.71117 12.6348L7.48041 11.1804L7.69568 10.8713C7.71045 10.8499 7.72135 10.826 7.72763 10.8008ZM6.9996 13.1342L6.72569 12.6363L6.95955 11.1623C6.96822 11.1077 6.9554 11.0519 6.92382 11.0066L6.74457 10.7492L7.00022 10.4023L7.2572 10.7523L7.08011 11.0066C7.04853 11.0519 7.03573 11.1077 7.04438 11.1623L7.27717 12.6295L6.9996 13.1342Z" fill="black" stroke="black" stroke-width="0.2"/>
</svg>
