<svg width="26" height="27" viewBox="0 0 26 27" fill="none" xmlns="http://www.w3.org/2000/svg">
<rect y="0.5" width="26" height="26" rx="2" fill="#F5F5F5"/>
<g clip-path="url(#clip0_345_2079)">
<path fill-rule="evenodd" clip-rule="evenodd" d="M13.0001 15.6216L18.3031 20.9246C18.5845 21.206 18.9661 21.3641 19.3641 21.3641C19.762 21.3641 20.1437 21.206 20.4251 20.9246C20.7065 20.6432 20.8646 20.2616 20.8646 19.8636C20.8646 19.4657 20.7065 19.084 20.4251 18.8026L15.1201 13.4996L20.4241 8.19662C20.5634 8.05729 20.6738 7.89189 20.7492 7.70987C20.8245 7.52785 20.8633 7.33277 20.8632 7.13577C20.8632 6.93877 20.8243 6.74371 20.7489 6.56172C20.6735 6.37974 20.5629 6.21439 20.4236 6.07512C20.2843 5.93586 20.1189 5.8254 19.9368 5.75005C19.7548 5.6747 19.5597 5.63595 19.3627 5.63599C19.1657 5.63604 18.9707 5.67489 18.7887 5.75032C18.6067 5.82575 18.4414 5.93629 18.3021 6.07562L13.0001 11.3786L7.69709 6.07562C7.55879 5.93229 7.39333 5.81794 7.21036 5.73924C7.02739 5.66055 6.83058 5.61907 6.63141 5.61725C6.43224 5.61543 6.23471 5.65329 6.05033 5.72862C5.86595 5.80395 5.69842 5.91526 5.55752 6.05603C5.41661 6.1968 5.30515 6.36422 5.22964 6.54853C5.15414 6.73284 5.11609 6.93034 5.11773 7.12951C5.11936 7.32868 5.16065 7.52553 5.23917 7.70857C5.3177 7.89161 5.43189 8.05718 5.57509 8.19562L10.8801 13.4996L5.57609 18.8036C5.43289 18.9421 5.3187 19.1076 5.24017 19.2907C5.16165 19.4737 5.12036 19.6706 5.11873 19.8697C5.11709 20.0689 5.15514 20.2664 5.23064 20.4507C5.30615 20.635 5.41761 20.8024 5.55852 20.9432C5.69942 21.084 5.86695 21.1953 6.05133 21.2706C6.23571 21.346 6.43324 21.3838 6.63241 21.382C6.83158 21.3802 7.02839 21.3387 7.21136 21.26C7.39433 21.1813 7.55979 21.0669 7.69809 20.9236L13.0001 15.6216Z" fill="#9E9E9E"/>
</g>
<defs>
<clipPath id="clip0_345_2079">
<rect width="24" height="24" fill="white" transform="translate(1 1.5)"/>
</clipPath>
</defs>
</svg>
