<svg width="24" height="24" viewBox="0 0 24 24" fill="none" xmlns="http://www.w3.org/2000/svg">
<g clip-path="url(#clip0_1246_632)">
<path d="M12.2465 7.44666C11.707 7.44743 11.1719 7.54451 10.6665 7.73332L16.5332 13.6C16.7243 13.0883 16.8215 12.5462 16.8198 12C16.8145 10.7905 16.3304 9.63242 15.4733 8.77908C14.6162 7.92573 13.456 7.44664 12.2465 7.44666Z" fill="black"/>
<path d="M22.8598 11.6867C20.6132 7.53335 16.6732 5.02002 12.3132 5.02002C11.126 5.02258 9.94688 5.21386 8.81982 5.58669L9.89316 6.66669C10.6838 6.46251 11.4966 6.35726 12.3132 6.35335C16.0665 6.35335 19.4798 8.44669 21.5132 11.9734C20.7666 13.2813 19.7779 14.4352 18.5998 15.3734L19.5465 16.32C20.9109 15.22 22.0438 13.8604 22.8798 12.32L23.0532 12L22.8598 11.6867Z" fill="black"/>
<path d="M3.24643 3.85332L6.21976 6.82665C4.33998 8.03626 2.80387 9.71015 1.75976 11.6867L1.58643 12L1.75976 12.32C4.00643 16.4733 7.94642 18.9867 12.3064 18.9867C14.0083 18.987 15.6881 18.6018 17.2198 17.86L20.5531 21.1933L21.7198 20.1933L4.38643 2.85999L3.24643 3.85332ZM8.77976 9.38665C8.15605 10.2663 7.86371 11.3382 7.9545 12.4126C8.04529 13.4871 8.51336 14.4948 9.27583 15.2572C10.0383 16.0197 11.046 16.4878 12.1204 16.5786C13.1949 16.6694 14.2668 16.377 15.1464 15.7533L16.2131 16.82C14.9783 17.348 13.6493 17.6201 12.3064 17.62C8.55309 17.62 5.13976 15.5267 3.10643 12C4.08247 10.2723 5.48776 8.82569 7.18643 7.79999L8.77976 9.38665Z" fill="black"/>
</g>
<defs>
<clipPath id="clip0_1246_632">
<rect width="24" height="24" fill="white"/>
</clipPath>
</defs>
</svg>
