<svg width="31" height="31" viewBox="0 0 31 31" fill="none" xmlns="http://www.w3.org/2000/svg">
<g clip-path="url(#clip0_726_9003)">
<path d="M10.9508 1.48691C7.95335 2.52676 5.36834 4.50043 3.57548 7.11801C1.78262 9.73559 0.876419 12.8591 0.989976 16.0298C1.10353 19.2005 2.23087 22.2512 4.20638 24.7338C6.1819 27.2164 8.90148 29.0001 11.9657 29.8229C14.4499 30.4639 17.0526 30.492 19.55 29.9049C21.8125 29.3967 23.9042 28.3096 25.6203 26.7502C27.4065 25.0776 28.7029 22.9498 29.3703 20.5955C30.0958 18.0354 30.2249 15.343 29.7477 12.7252H15.7977V18.5119H23.8766C23.7151 19.4349 23.3691 20.3157 22.8593 21.1018C22.3495 21.8879 21.6863 22.5631 20.9094 23.0869C19.9229 23.7395 18.8108 24.1786 17.6446 24.376C16.4749 24.5935 15.2752 24.5935 14.1055 24.376C12.92 24.1309 11.7985 23.6416 10.8125 22.9393C9.22851 21.818 8.03912 20.225 7.4141 18.3877C6.7785 16.516 6.7785 14.4868 7.4141 12.615C7.859 11.303 8.59449 10.1085 9.56566 9.12051C10.677 7.96913 12.0841 7.14612 13.6324 6.74178C15.1808 6.33743 16.8106 6.36738 18.343 6.82832C19.5401 7.1958 20.6348 7.83786 21.5399 8.70332C22.4508 7.79707 23.3602 6.88848 24.268 5.97754C24.7368 5.48769 25.2477 5.02129 25.7094 4.51973C24.3279 3.23412 22.7063 2.23377 20.9375 1.57598C17.7165 0.40642 14.1922 0.374989 10.9508 1.48691Z" fill="white"/>
<path d="M10.9504 1.48659C14.1915 0.373908 17.7158 0.404511 20.9371 1.57331C22.7062 2.23556 24.3271 3.24074 25.7066 4.53112C25.2379 5.03268 24.7434 5.50143 24.2652 5.98893C23.3559 6.89674 22.4473 7.80143 21.5395 8.70299C20.6344 7.83753 19.5397 7.19547 18.3426 6.82799C16.8106 6.36543 15.1809 6.33376 13.6322 6.73645C12.0834 7.13914 10.6755 7.96064 9.56289 9.11081C8.59172 10.0988 7.85623 11.2933 7.41133 12.6053L2.55273 8.84362C4.29182 5.39493 7.30293 2.75696 10.9504 1.48659Z" fill="#E33629"/>
<path d="M1.26327 12.5703C1.52442 11.2761 1.95797 10.0227 2.55234 8.84375L7.41093 12.6148C6.77534 14.4866 6.77534 16.5158 7.41093 18.3875C5.79218 19.6375 4.17265 20.8938 2.55234 22.1563C1.06441 19.1945 0.610617 15.8199 1.26327 12.5703Z" fill="#F8BD00"/>
<path d="M15.7979 12.7227H29.7479C30.2251 15.3405 30.096 18.0328 29.3706 20.593C28.7032 22.9472 27.4067 25.075 25.6206 26.7477C24.0526 25.5242 22.4776 24.3102 20.9096 23.0867C21.687 22.5624 22.3505 21.8865 22.8604 21.0995C23.3702 20.3126 23.716 19.4308 23.8768 18.507H15.7979C15.7956 16.5805 15.7979 14.6516 15.7979 12.7227Z" fill="#587DBD"/>
<path d="M2.55078 22.1564C4.17109 20.9064 5.79062 19.6502 7.40937 18.3877C8.03564 20.2257 9.22673 21.8187 10.8125 22.9393C11.8016 23.6383 12.9255 24.1236 14.1125 24.3643C15.2822 24.5817 16.4819 24.5817 17.6516 24.3643C18.8178 24.1668 19.9299 23.7278 20.9164 23.0752C22.4844 24.2986 24.0594 25.5127 25.6273 26.7361C23.9115 28.2964 21.8197 29.3843 19.557 29.8932C17.0596 30.4803 14.4569 30.4521 11.9727 29.8111C10.0079 29.2865 8.17268 28.3617 6.58203 27.0947C4.89842 25.7581 3.52333 24.0736 2.55078 22.1564Z" fill="#319F43"/>
</g>
<defs>
<clipPath id="clip0_726_9003">
<rect width="30" height="30" fill="white" transform="translate(0.5 0.5)"/>
</clipPath>
</defs>
</svg>
