<svg width="24" height="25" viewBox="0 0 24 25" fill="none" xmlns="http://www.w3.org/2000/svg">
<circle cx="12" cy="12.5" r="12" fill="black"/>
<g clip-path="url(#clip0_343_11230)">
<path d="M12 7.58113C13.602 7.58113 13.7918 7.58722 14.4245 7.61605C15.0095 7.64277 15.3272 7.7405 15.5386 7.82267C15.8187 7.93152 16.0185 8.06155 16.2285 8.2715C16.4385 8.48145 16.5685 8.68133 16.6773 8.96136C16.7595 9.17281 16.8572 9.49053 16.884 10.0755C16.9128 10.7082 16.9189 10.898 16.9189 12.5C16.9189 14.102 16.9128 14.2918 16.884 14.9245C16.8572 15.5095 16.7595 15.8272 16.6773 16.0386C16.5685 16.3187 16.4385 16.5186 16.2285 16.7285C16.0185 16.9385 15.8187 17.0685 15.5386 17.1773C15.3272 17.2595 15.0095 17.3573 14.4245 17.384C13.7919 17.4128 13.6021 17.4189 12 17.4189C10.3979 17.4189 10.2081 17.4128 9.57548 17.384C8.99048 17.3572 8.67281 17.2595 8.46136 17.1773C8.18133 17.0685 7.98141 16.9385 7.77145 16.7285C7.5615 16.5185 7.43147 16.3187 7.32267 16.0386C7.2405 15.8272 7.14272 15.5095 7.11605 14.9245C7.08717 14.2918 7.08108 14.1021 7.08108 12.5C7.08108 10.8979 7.08717 10.7082 7.11605 10.0755C7.14277 9.49053 7.2405 9.17281 7.32267 8.96136C7.43147 8.68133 7.5615 8.48145 7.77145 8.2715C7.98145 8.0615 8.18133 7.93152 8.46136 7.82267C8.67277 7.7405 8.99048 7.64277 9.57548 7.61605C10.2082 7.58722 10.3979 7.58113 12 7.58113ZM12 6.5C10.3705 6.5 10.1662 6.50689 9.52622 6.53609C8.88755 6.56525 8.45138 6.66669 8.06977 6.815C7.67517 6.96833 7.34058 7.1735 7.00702 7.50706C6.67345 7.84062 6.46833 8.17522 6.315 8.56977C6.16664 8.95142 6.06525 9.38759 6.03609 10.0262C6.00689 10.6662 6 10.8705 6 12.5C6 14.1295 6.00689 14.3338 6.03609 14.9738C6.06525 15.6125 6.16664 16.0486 6.315 16.4302C6.46828 16.8248 6.67345 17.1594 7.00702 17.493C7.34058 17.8265 7.67517 18.0317 8.06977 18.185C8.45142 18.3334 8.88755 18.4347 9.52617 18.4639C10.1662 18.4931 10.3705 18.5 12 18.5C13.6295 18.5 13.8338 18.4931 14.4738 18.4639C15.1124 18.4347 15.5486 18.3334 15.9302 18.185C16.3248 18.0317 16.6594 17.8265 16.9929 17.493C17.3265 17.1594 17.5317 16.8248 17.685 16.4302C17.8333 16.0486 17.9347 15.6125 17.9639 14.9738C17.9931 14.3338 18 14.1295 18 12.5C18 10.8705 17.9931 10.6662 17.9639 10.0262C17.9347 9.38759 17.8333 8.95142 17.685 8.56981C17.5317 8.17522 17.3265 7.84062 16.9929 7.50706C16.6594 7.1735 16.3248 6.96828 15.9302 6.815C15.5486 6.66669 15.1124 6.56525 14.4738 6.53609C13.8338 6.50689 13.6295 6.5 12 6.5ZM12 9.41891C10.2983 9.41891 8.91891 10.7984 8.91891 12.5C8.91891 14.2016 10.2983 15.5811 12 15.5811C13.7016 15.5811 15.0811 14.2017 15.0811 12.5C15.0811 10.7984 13.7016 9.41891 12 9.41891ZM12 14.5C10.8954 14.5 9.99998 13.6046 9.99998 12.5C9.99998 11.3954 10.8954 10.5 12 10.5C13.1046 10.5 14 11.3954 14 12.5C14 13.6046 13.1046 14.5 12 14.5ZM15.9228 9.29717C15.9228 9.69486 15.6005 10.0172 15.2028 10.0172C14.8051 10.0172 14.4828 9.69486 14.4828 9.29717C14.4828 8.89948 14.8051 8.57717 15.2028 8.57717C15.6004 8.57717 15.9228 8.89953 15.9228 9.29717Z" fill="white"/>
</g>
<defs>
<clipPath id="clip0_343_11230">
<rect width="12" height="12" fill="white" transform="translate(6 6.5)"/>
</clipPath>
</defs>
</svg>
