<svg width="20" height="20" viewBox="0 0 20 20" fill="none" xmlns="http://www.w3.org/2000/svg">
<g clip-path="url(#clip0_656_5735)">
<path d="M14.4317 0.0641667C15.4467 0.110833 16.1483 0.26 16.7967 0.511667C17.4109 0.742482 17.9672 1.10484 18.4267 1.57333C18.8952 2.03276 19.2575 2.58909 19.4883 3.20333C19.74 3.8525 19.8892 4.55333 19.9358 5.56833C19.9933 6.82667 20 7.27 20 10C20 12.73 19.9933 13.1733 19.9358 14.4317C19.8892 15.4467 19.74 16.1483 19.4883 16.7975C19.2574 17.4114 18.8951 17.9675 18.4267 18.4267C17.9672 18.8952 17.4109 19.2575 16.7967 19.4883C16.1475 19.74 15.4467 19.8892 14.4317 19.9358C13.1733 19.9933 12.7308 20 10 20C7.26917 20 6.82583 19.9933 5.56833 19.9358C4.55333 19.8892 3.85167 19.74 3.2025 19.4883C2.58856 19.2574 2.03252 18.8951 1.57333 18.4267C1.10484 17.9672 0.742482 17.4109 0.511667 16.7967C0.26 16.1475 0.110833 15.4467 0.0641667 14.4317C0.00666667 13.175 0 12.7317 0 10C0 7.26833 0.00666667 6.825 0.0641667 5.56833C0.110833 4.55333 0.26 3.85167 0.511667 3.20333C0.742482 2.58909 1.10484 2.03276 1.57333 1.57333C2.03252 1.10494 2.58856 0.74259 3.2025 0.511667C3.8525 0.26 4.55333 0.110833 5.56833 0.0641667C6.825 0.00666667 7.26833 0 10 0C12.7317 0 13.175 0.00666667 14.4317 0.0641667ZM10 2.2225C7.3 2.2225 6.88667 2.22833 5.66917 2.28417C4.89667 2.31917 4.43333 2.4175 4.0075 2.58333C3.645 2.725 3.41417 2.875 3.14417 3.14417C2.87417 3.41333 2.725 3.645 2.58333 4.00833C2.41833 4.43333 2.31917 4.8975 2.28417 5.67C2.22833 6.88667 2.2225 7.3 2.2225 10C2.2225 12.7 2.22833 13.1133 2.28417 14.3308C2.31917 15.1033 2.4175 15.5667 2.58333 15.9917C2.725 16.355 2.875 16.5858 3.14417 16.8558C3.41333 17.1258 3.645 17.2758 4.0075 17.4167C4.4325 17.5817 4.89667 17.6808 5.66917 17.7158C6.8875 17.7717 7.30083 17.7775 10 17.7775C12.7 17.7775 13.1125 17.7717 14.3308 17.7158C15.1033 17.6808 15.5667 17.5825 15.9925 17.4167C16.355 17.275 16.5858 17.125 16.8558 16.8558C17.1258 16.5867 17.2758 16.355 17.4167 15.9925C17.5817 15.5675 17.6808 15.1033 17.7158 14.3308C17.7717 13.1125 17.7775 12.6992 17.7775 10C17.7775 7.30083 17.7717 6.8875 17.7158 5.66917C17.6808 4.89667 17.5825 4.43333 17.4167 4.00833C17.2991 3.68078 17.1071 3.38497 16.8558 3.14417C16.615 2.8929 16.3192 2.70093 15.9917 2.58333C15.5667 2.41833 15.1025 2.31917 14.33 2.28417C13.1125 2.22833 12.6992 2.2225 9.99917 2.2225M9.99917 15.185C8.62402 15.185 7.30519 14.6387 6.33282 13.6663C5.36044 12.694 4.81417 11.3751 4.81417 10C4.81417 8.62485 5.36044 7.30603 6.33282 6.33365C7.30519 5.36127 8.62402 4.815 9.99917 4.815C11.3743 4.815 12.6931 5.36127 13.6655 6.33365C14.6379 7.30603 15.1842 8.62485 15.1842 10C15.1842 11.3751 14.6379 12.694 13.6655 13.6663C12.6931 14.6387 11.3743 15.185 9.99917 15.185ZM9.99917 12.9633C10.7851 12.9633 11.5388 12.6511 12.0946 12.0954C12.6503 11.5397 12.9625 10.7859 12.9625 10C12.9625 9.21408 12.6503 8.46034 12.0946 7.90461C11.5388 7.34887 10.7851 7.03667 9.99917 7.03667C9.21324 7.03667 8.45951 7.34887 7.90377 7.90461C7.34804 8.46034 7.03583 9.21408 7.03583 10C7.03583 10.7859 7.34804 11.5397 7.90377 12.0954C8.45951 12.6511 9.21324 12.9633 9.99917 12.9633ZM15.1842 5.92583C14.8894 5.92583 14.6068 5.80876 14.3984 5.60036C14.19 5.39196 14.0729 5.10931 14.0729 4.81458C14.0729 4.51986 14.19 4.23721 14.3984 4.02881C14.6068 3.82041 14.8894 3.70333 15.1842 3.70333C15.4789 3.70333 15.7615 3.82041 15.9699 4.02881C16.1783 4.23721 16.2954 4.51986 16.2954 4.81458C16.2954 5.10931 16.1783 5.39196 15.9699 5.60036C15.7615 5.80876 15.4789 5.92583 15.1842 5.92583Z" fill="#696969"/>
</g>
<defs>
<clipPath id="clip0_656_5735">
<rect width="20" height="20" fill="white"/>
</clipPath>
</defs>
</svg>
