<svg width="16" height="16" viewBox="0 0 16 16" fill="none" xmlns="http://www.w3.org/2000/svg">
<g clip-path="url(#clip0_343_10442)">
<path d="M7.99984 2.66602C10.9454 2.66602 13.3332 5.05383 13.3332 7.99935C13.3332 10.9449 10.9454 13.3327 7.99984 13.3327C5.05432 13.3327 2.6665 10.9449 2.6665 7.99935C2.6665 5.05383 5.05432 2.66602 7.99984 2.66602Z" stroke="black" stroke-width="2" stroke-linecap="round"/>
<path d="M7.99992 2.66634V1.33301M13.3333 7.99967H14.6666M7.99992 13.333V14.6663M2.66659 7.99967H1.33325" stroke="black" stroke-width="2" stroke-linecap="round"/>
<path d="M7.99992 10.6663C9.47268 10.6663 10.6666 9.47243 10.6666 7.99967C10.6666 6.52692 9.47268 5.33301 7.99992 5.33301C6.52716 5.33301 5.33325 6.52692 5.33325 7.99967C5.33325 9.47243 6.52716 10.6663 7.99992 10.6663Z" fill="black"/>
</g>
<defs>
<clipPath id="clip0_343_10442">
<rect width="16" height="16" fill="white"/>
</clipPath>
</defs>
</svg>
