<svg width="16" height="17" viewBox="0 0 16 17" fill="none" xmlns="http://www.w3.org/2000/svg">
<path d="M4.83337 5.83301C4.83337 5.55687 5.05723 5.33301 5.33337 5.33301H8.00004C8.27617 5.33301 8.50004 5.55687 8.50004 5.83301C8.50004 6.10915 8.27617 6.33301 8.00004 6.33301H5.33337C5.05723 6.33301 4.83337 6.10915 4.83337 5.83301Z" fill="#BBBBBB"/>
<path d="M4.83337 8.5C4.83337 8.22387 5.05723 8 5.33337 8H10.6667C10.9428 8 11.1667 8.22387 11.1667 8.5C11.1667 8.77613 10.9428 9 10.6667 9H5.33337C5.05723 9 4.83337 8.77613 4.83337 8.5Z" fill="#BBBBBB"/>
<path fill-rule="evenodd" clip-rule="evenodd" d="M6.64433 1.33301H9.35577C10.2702 1.33301 10.9872 1.333 11.5634 1.38008C12.1502 1.42802 12.6349 1.52726 13.0736 1.75081C13.795 2.11833 14.3814 2.70475 14.7489 3.42604C14.9724 3.8648 15.0717 4.34953 15.1196 4.9363C15.1667 5.51253 15.1667 6.22948 15.1667 7.14396V7.95581V8.05374C15.1668 9.08614 15.167 9.71594 15.0118 10.2449C14.6445 11.4977 13.6648 12.4775 12.412 12.8448C11.883 12.9999 11.2532 12.9998 10.2208 12.9997C10.1885 12.9997 10.1559 12.9997 10.1228 12.9997H9.75698L9.71677 12.9997C9.13864 13.0034 8.57551 13.1839 8.10291 13.5169L8.07011 13.5403L6.32965 14.7835C5.32664 15.4999 4.00863 14.4653 4.4664 13.3208C4.52793 13.167 4.41465 12.9997 4.24898 12.9997H3.84781C2.18298 12.9997 0.833374 11.6501 0.833374 9.98521V7.14397C0.833374 6.22949 0.833367 5.51254 0.880447 4.9363C0.928387 4.34953 1.02763 3.8648 1.25118 3.42604C1.61869 2.70475 2.20512 2.11833 2.92641 1.75081C3.36517 1.52726 3.8499 1.42802 4.43667 1.38008C5.0129 1.333 5.72985 1.33301 6.64433 1.33301ZM4.51809 2.37676C3.99317 2.41965 3.65469 2.50207 3.3804 2.64182C2.84727 2.91346 2.41383 3.34691 2.14219 3.88003C2.00243 4.15432 1.92001 4.49281 1.87713 5.01773C1.83376 5.54849 1.83337 6.22467 1.83337 7.16634V9.98521C1.83337 11.0978 2.73527 11.9997 3.84781 11.9997H4.24898C5.12211 11.9997 5.71915 12.8815 5.39488 13.6922C5.30802 13.9093 5.5581 14.1057 5.74841 13.9697L7.52684 12.6995C8.16624 12.2489 8.92817 12.0047 9.71037 11.9997L9.75698 11.9997H10.1228C11.2841 11.9997 11.7576 11.9946 12.1306 11.8852C13.0566 11.6137 13.7807 10.8895 14.0522 9.96354C14.1616 9.59054 14.1667 9.11708 14.1667 7.95581V7.16634C14.1667 6.22467 14.1663 5.54849 14.123 5.01773C14.08 4.49281 13.9976 4.15432 13.8579 3.88003C13.5862 3.34691 13.1528 2.91346 12.6197 2.64182C12.3454 2.50207 12.0069 2.41965 11.482 2.37676C10.9512 2.33339 10.275 2.33301 9.33337 2.33301H6.66671C5.72503 2.33301 5.04885 2.33339 4.51809 2.37676Z" fill="#BBBBBB"/>
</svg>
