<svg width="16" height="16" viewBox="0 0 16 16" fill="none" xmlns="http://www.w3.org/2000/svg">
<path d="M13.8618 10.9963C13.5149 10.3988 12.9993 8.70813 12.9993 6.5C12.9993 5.17392 12.4725 3.90215 11.5348 2.96447C10.5971 2.02678 9.32536 1.5 7.99928 1.5C6.67319 1.5 5.40142 2.02678 4.46374 2.96447C3.52606 3.90215 2.99928 5.17392 2.99928 6.5C2.99928 8.70875 2.48303 10.3988 2.13615 10.9963C2.04757 11.1482 2.00061 11.3207 2.00001 11.4966C1.9994 11.6724 2.04518 11.8453 2.13271 11.9978C2.22025 12.1503 2.34645 12.277 2.49859 12.3652C2.65073 12.4534 2.82343 12.4999 2.99928 12.5H5.5499C5.66526 13.0645 5.97204 13.5718 6.41836 13.9361C6.86468 14.3004 7.42314 14.4994 7.99928 14.4994C8.57542 14.4994 9.13387 14.3004 9.58019 13.9361C10.0265 13.5718 10.3333 13.0645 10.4487 12.5H12.9993C13.1751 12.4998 13.3477 12.4532 13.4997 12.365C13.6518 12.2768 13.7779 12.15 13.8654 11.9975C13.9528 11.845 13.9986 11.6722 13.9979 11.4964C13.9973 11.3206 13.9503 11.1481 13.8618 10.9963ZM7.99928 13.5C7.68916 13.4999 7.3867 13.4037 7.13352 13.2246C6.88035 13.0455 6.6889 12.7924 6.58553 12.5H9.41303C9.30965 12.7924 9.11821 13.0455 8.86503 13.2246C8.61185 13.4037 8.30939 13.4999 7.99928 13.5Z" fill="black"/>
</svg>
