<svg width="14" height="15" viewBox="0 0 14 15" fill="none" xmlns="http://www.w3.org/2000/svg">
<g clip-path="url(#clip0_726_1293)">
<path d="M6.90036 7.24387C7.82684 7.24387 8.629 6.91158 9.28461 6.25597C9.94 5.60046 10.2724 4.79842 10.2724 3.87183C10.2724 2.94556 9.94011 2.1434 9.2845 1.48769C8.62889 0.832291 7.82674 0.5 6.90036 0.5C5.97377 0.5 5.17172 0.832291 4.51622 1.48779C3.86072 2.1433 3.52832 2.94545 3.52832 3.87183C3.52832 4.79842 3.86072 5.60057 4.51622 6.25607C5.17194 6.91147 5.97409 7.24387 6.90036 7.24387ZM5.09642 2.06789C5.5994 1.56491 6.18942 1.32042 6.90036 1.32042C7.61119 1.32042 8.20132 1.56491 8.70441 2.06789C9.20738 2.57097 9.45198 3.1611 9.45198 3.87183C9.45198 4.58276 9.20738 5.17279 8.70441 5.67587C8.20132 6.17896 7.61119 6.42345 6.90036 6.42345C6.18964 6.42345 5.59961 6.17885 5.09642 5.67587C4.59334 5.1729 4.34874 4.58276 4.34874 3.87183C4.34874 3.1611 4.59334 2.57097 5.09642 2.06789Z" fill="black"/>
<path d="M12.8004 11.2655C12.7815 10.9927 12.7433 10.6951 12.687 10.3808C12.6301 10.0643 12.557 9.76497 12.4694 9.49142C12.3788 9.20869 12.2559 8.92949 12.1037 8.66193C11.9459 8.38422 11.7605 8.14239 11.5524 7.94341C11.3348 7.73523 11.0685 7.56786 10.7604 7.44577C10.4534 7.32433 10.1132 7.2628 9.74933 7.2628C9.60641 7.2628 9.4682 7.32144 9.20128 7.49522C9.037 7.60236 8.84485 7.72626 8.63037 7.8633C8.44698 7.98015 8.19853 8.08963 7.89166 8.18875C7.59227 8.28563 7.28828 8.33476 6.98814 8.33476C6.68822 8.33476 6.38423 8.28563 6.08463 8.18875C5.77808 8.08974 5.52953 7.98026 5.34645 7.8634C5.134 7.72765 4.94174 7.60374 4.77501 7.49512C4.5083 7.32133 4.37009 7.2627 4.22717 7.2627C3.86316 7.2627 3.52307 7.32433 3.2162 7.44588C2.90837 7.56775 2.64188 7.73512 2.42409 7.94351C2.21602 8.14261 2.03059 8.38432 1.87294 8.66193C1.72095 8.92949 1.5979 9.20859 1.50732 9.49153C1.41985 9.76508 1.34668 10.0643 1.28986 10.3808C1.23346 10.6947 1.19533 10.9923 1.17642 11.2658C1.15784 11.5331 1.14844 11.8114 1.14844 12.0925C1.14844 12.8233 1.38075 13.4149 1.83887 13.8513C2.29132 14.2818 2.88989 14.5001 3.61803 14.5001H10.3591C11.087 14.5001 11.6856 14.2818 12.1382 13.8513C12.5964 13.4153 12.8287 12.8234 12.8287 12.0924C12.8286 11.8103 12.8191 11.5321 12.8004 11.2655ZM11.5725 13.2569C11.2735 13.5414 10.8766 13.6797 10.359 13.6797H3.61803C3.10031 13.6797 2.7034 13.5414 2.40454 13.257C2.11134 12.9779 1.96886 12.5969 1.96886 12.0925C1.96886 11.8302 1.97751 11.5712 1.99481 11.3225C2.01169 11.0785 2.04619 10.8105 2.09735 10.5258C2.14787 10.2446 2.21217 9.98062 2.28865 9.74168C2.36203 9.51257 2.46211 9.28571 2.58623 9.06717C2.70468 8.85889 2.84097 8.68019 2.99136 8.53621C3.13203 8.40152 3.30934 8.29129 3.51826 8.20862C3.71149 8.13214 3.92863 8.09027 4.16437 8.08397C4.1931 8.09924 4.24426 8.1284 4.32715 8.18245C4.4958 8.29236 4.6902 8.41776 4.90511 8.55501C5.14735 8.70946 5.45946 8.84895 5.83234 8.96933C6.21355 9.09259 6.60234 9.15518 6.98825 9.15518C7.37416 9.15518 7.76306 9.09259 8.14406 8.96944C8.51726 8.84885 8.82925 8.70946 9.07182 8.55479C9.29175 8.41423 9.4807 8.29247 9.64935 8.18245C9.73224 8.12851 9.7834 8.09924 9.81213 8.08397C10.048 8.09027 10.2651 8.13214 10.4585 8.20862C10.6673 8.29129 10.8446 8.40163 10.9852 8.53621C11.1356 8.68008 11.2719 8.85878 11.3904 9.06728C11.5146 9.28571 11.6148 9.51268 11.6881 9.74158C11.7646 9.98083 11.8291 10.2447 11.8795 10.5257C11.9305 10.811 11.9651 11.0791 11.982 11.3226V11.3228C11.9994 11.5705 12.0082 11.8294 12.0083 12.0925C12.0082 12.597 11.8657 12.9779 11.5725 13.2569Z" fill="black"/>
</g>
<defs>
<clipPath id="clip0_726_1293">
<rect width="14" height="14" fill="white" transform="translate(0 0.5)"/>
</clipPath>
</defs>
</svg>
