<svg width="14" height="15" viewBox="0 0 14 15" fill="none" xmlns="http://www.w3.org/2000/svg">
<path d="M12.6436 9.05459L11.748 8.28896C11.7904 8.0292 11.8123 7.76396 11.8123 7.49873C11.8123 7.2335 11.7904 6.96826 11.748 6.7085L12.6436 5.94287C12.7111 5.88505 12.7594 5.80803 12.7822 5.72207C12.8049 5.6361 12.8009 5.54526 12.7707 5.46162L12.7584 5.42607C12.5119 4.73704 12.1427 4.0983 11.6688 3.54072L11.6441 3.51201C11.5866 3.44441 11.51 3.39581 11.4244 3.37262C11.3387 3.34944 11.248 3.35275 11.1643 3.38213L10.0527 3.77725C9.64258 3.44092 9.18457 3.17568 8.68965 2.98975L8.475 1.82764C8.45881 1.74019 8.41639 1.65975 8.35339 1.59699C8.29038 1.53423 8.20977 1.49212 8.12227 1.47627L8.08535 1.46943C7.37305 1.34092 6.62383 1.34092 5.91153 1.46943L5.87461 1.47627C5.78711 1.49212 5.7065 1.53423 5.64349 1.59699C5.58049 1.65975 5.53807 1.74019 5.52188 1.82764L5.30586 2.99521C4.81489 3.1812 4.35768 3.44629 3.95235 3.77998L2.83262 3.38213C2.7489 3.35252 2.65815 3.34908 2.57244 3.37228C2.48672 3.39548 2.41009 3.44422 2.35274 3.51201L2.32813 3.54072C1.85473 4.0987 1.48563 4.73733 1.23848 5.42607L1.22617 5.46162C1.16465 5.63252 1.21524 5.82393 1.35332 5.94287L2.25977 6.7167C2.21739 6.97373 2.19688 7.23623 2.19688 7.49736C2.19688 7.75986 2.21739 8.02236 2.25977 8.27803L1.35332 9.05186C1.28578 9.10968 1.23744 9.18669 1.21472 9.27266C1.19201 9.35862 1.196 9.44947 1.22617 9.53311L1.23848 9.56865C1.48594 10.2577 1.85235 10.8935 2.32813 11.454L2.35274 11.4827C2.41023 11.5503 2.48686 11.5989 2.57253 11.6221C2.65819 11.6453 2.74888 11.642 2.83262 11.6126L3.95235 11.2147C4.35977 11.5497 4.81504 11.8149 5.30586 11.9995L5.52188 13.1671C5.53807 13.2545 5.58049 13.335 5.64349 13.3977C5.7065 13.4605 5.78711 13.5026 5.87461 13.5185L5.91153 13.5253C6.63038 13.6545 7.3665 13.6545 8.08535 13.5253L8.12227 13.5185C8.20977 13.5026 8.29038 13.4605 8.35339 13.3977C8.41639 13.335 8.45881 13.2545 8.475 13.1671L8.68965 12.005C9.18437 11.8195 9.64497 11.5534 10.0527 11.2175L11.1643 11.6126C11.248 11.6422 11.3387 11.6456 11.4244 11.6224C11.5102 11.5992 11.5868 11.5505 11.6441 11.4827L11.6688 11.454C12.1445 10.8921 12.5109 10.2577 12.7584 9.56865L12.7707 9.53311C12.8322 9.36494 12.7816 9.17354 12.6436 9.05459ZM10.7773 6.86982C10.8115 7.07627 10.8293 7.28818 10.8293 7.5001C10.8293 7.71201 10.8115 7.92393 10.7773 8.13037L10.6871 8.67861L11.7084 9.55225C11.5536 9.90893 11.3581 10.2466 11.126 10.5585L9.85723 10.1087L9.42793 10.4614C9.10117 10.7294 8.7375 10.9399 8.34375 11.0876L7.82285 11.2831L7.57813 12.6093C7.19199 12.653 6.80215 12.653 6.41602 12.6093L6.17129 11.2804L5.65449 11.0821C5.26485 10.9345 4.90254 10.7239 4.57852 10.4573L4.14922 10.1032L2.87227 10.5571C2.63985 10.244 2.44571 9.90635 2.28985 9.55088L3.32207 8.66904L3.23321 8.12217C3.20039 7.91846 3.18262 7.70791 3.18262 7.5001C3.18262 7.29092 3.19903 7.08174 3.23321 6.87803L3.32207 6.33115L2.28985 5.44932C2.44434 5.09248 2.63985 4.75615 2.87227 4.44307L4.14922 4.89697L4.57852 4.54287C4.90254 4.27627 5.26485 4.06572 5.65449 3.91807L6.17266 3.72256L6.41739 2.39365C6.80157 2.3499 7.19395 2.3499 7.5795 2.39365L7.82422 3.71982L8.34512 3.91533C8.7375 4.06299 9.10254 4.27354 9.4293 4.5415L9.8586 4.89424L11.1273 4.44443C11.3598 4.75752 11.5539 5.09521 11.7098 5.45068L10.6885 6.32432L10.7773 6.86982ZM6.99981 4.95713C5.6709 4.95713 4.59356 6.03447 4.59356 7.36338C4.59356 8.69229 5.6709 9.76963 6.99981 9.76963C8.32871 9.76963 9.40606 8.69229 9.40606 7.36338C9.40606 6.03447 8.32871 4.95713 6.99981 4.95713ZM8.08262 8.44619C7.9406 8.58862 7.77182 8.70156 7.58599 8.77852C7.40016 8.85548 7.20094 8.89494 6.99981 8.89463C6.59102 8.89463 6.20684 8.73467 5.91699 8.44619C5.77457 8.30417 5.66162 8.13539 5.58466 7.94956C5.5077 7.76373 5.46824 7.56452 5.46856 7.36338C5.46856 6.95459 5.62852 6.57041 5.91699 6.28057C6.20684 5.99072 6.59102 5.83213 6.99981 5.83213C7.4086 5.83213 7.79278 5.99072 8.08262 6.28057C8.22505 6.42259 8.33799 6.59137 8.41495 6.7772C8.49191 6.96303 8.53137 7.16224 8.53106 7.36338C8.53106 7.77217 8.3711 8.15635 8.08262 8.44619Z" fill="black"/>
</svg>
