<svg width="14" height="15" viewBox="0 0 14 15" fill="none" xmlns="http://www.w3.org/2000/svg">
<g clip-path="url(#clip0_726_1378)">
<path d="M6.97676 13.3142H1.74418C1.42324 13.3142 1.16279 13.0537 1.16279 12.7328V2.26764C1.16279 1.94671 1.42327 1.68626 1.74418 1.68626H6.97676C7.29827 1.68626 7.55814 1.42638 7.55814 1.10487C7.55814 0.783367 7.29827 0.523438 6.97676 0.523438H1.74418C0.782551 0.523438 0 1.30602 0 2.26764V12.7327C0 13.6944 0.782551 14.4769 1.74418 14.4769H6.97676C7.29827 14.4769 7.55814 14.2171 7.55814 13.8955C7.55814 13.574 7.29827 13.3142 6.97676 13.3142Z" fill="black"/>
<path d="M13.8269 7.08642L10.2921 3.59804C10.0641 3.37246 9.69555 3.37538 9.46996 3.60387C9.24438 3.83235 9.2467 4.20037 9.47579 4.42596L12.0019 6.91897H5.23275C4.91124 6.91897 4.65137 7.17884 4.65137 7.50035C4.65137 7.82186 4.91124 8.08176 5.23275 8.08176H12.0019L9.47579 10.5748C9.24673 10.8004 9.24498 11.1684 9.46996 11.3969C9.58391 11.512 9.73391 11.5701 9.88392 11.5701C10.0316 11.5701 10.1793 11.5143 10.2921 11.4027L13.8269 7.91428C13.9374 7.80499 14.0002 7.65613 14.0002 7.50033C14.0002 7.34458 13.938 7.19632 13.8269 7.08642Z" fill="black"/>
</g>
<defs>
<clipPath id="clip0_726_1378">
<rect width="14" height="14" fill="white" transform="translate(0 0.5)"/>
</clipPath>
</defs>
</svg>
