<svg width="10" height="11" viewBox="0 0 10 11" fill="none" xmlns="http://www.w3.org/2000/svg">
<path d="M5.41634 3.10887V6.8702C5.41634 7.04701 5.3461 7.21658 5.22108 7.3416C5.09605 7.46663 4.92649 7.53687 4.74967 7.53687C4.57286 7.53687 4.40329 7.46663 4.27827 7.3416C4.15325 7.21658 4.08301 7.04701 4.08301 6.8702V3.10887L3.33567 3.85687C3.21049 3.98196 3.04074 4.0522 2.86377 4.05214C2.6868 4.05208 2.5171 3.98171 2.39201 3.85653C2.26691 3.73135 2.19667 3.5616 2.19673 3.38463C2.1968 3.20766 2.26716 3.03796 2.39234 2.91287L4.27834 1.0282C4.40336 0.903218 4.5729 0.833008 4.74967 0.833008C4.92645 0.833008 5.09599 0.903218 5.22101 1.0282L7.10701 2.91353C7.16895 2.97552 7.21807 3.04909 7.25158 3.13006C7.28508 3.21103 7.30231 3.29781 7.30228 3.38543C7.30225 3.47306 7.28496 3.55983 7.2514 3.64077C7.21784 3.72172 7.16866 3.79526 7.10667 3.8572C7.04469 3.91914 6.97111 3.96826 6.89014 4.00177C6.80918 4.03527 6.7224 4.0525 6.63477 4.05247C6.54714 4.05244 6.46038 4.03515 6.37944 4.00159C6.29849 3.96803 6.22495 3.91885 6.16301 3.85687L5.41634 3.10887ZM0.749674 8.83287H8.74967C8.92649 8.83287 9.09606 8.9031 9.22108 9.02813C9.3461 9.15315 9.41634 9.32272 9.41634 9.49953C9.41634 9.67634 9.3461 9.84591 9.22108 9.97094C9.09606 10.096 8.92649 10.1662 8.74967 10.1662H0.749674C0.572863 10.1662 0.403294 10.096 0.27827 9.97094C0.153246 9.84591 0.0830078 9.67634 0.0830078 9.49953C0.0830078 9.32272 0.153246 9.15315 0.27827 9.02813C0.403294 8.9031 0.572863 8.83287 0.749674 8.83287Z" fill="white"/>
</svg>
