<svg width="14" height="15" viewBox="0 0 14 15" fill="none" xmlns="http://www.w3.org/2000/svg">
<g clip-path="url(#clip0_726_1309)">
<path d="M13.1797 7.20546V5.55491C13.1797 4.74401 12.5345 4.08133 11.7305 4.0524V3.03929C11.7305 2.51158 11.3011 2.08226 10.7734 2.08226H8.13865L7.79841 1.13652C7.71165 0.895346 7.53605 0.702627 7.30395 0.593881C7.07186 0.485108 6.81138 0.473514 6.57057 0.561178L1.78938 2.30136C1.5488 2.38892 1.35688 2.56498 1.24893 2.79713C1.14097 3.02928 1.13001 3.28951 1.21808 3.52992L1.41017 4.05423C0.624449 4.10282 0 4.75716 0 5.55491V12.9924C0 13.8217 0.674652 14.4963 1.50391 14.4963H11.6758C12.505 14.4963 13.1797 13.8217 13.1797 12.9924V11.2872C13.6428 11.2206 14 10.8213 14 10.3401V8.15257C14 7.67129 13.6428 7.27202 13.1797 7.20546ZM13.1797 10.3401C13.1797 10.4155 13.1184 10.4768 13.043 10.4768H10.8555C10.177 10.4768 9.625 9.9248 9.625 9.24632C9.625 8.56784 10.177 8.01585 10.8555 8.01585H13.043C13.1184 8.01585 13.1797 8.07718 13.1797 8.15257V10.3401ZM1.98833 3.24773C1.97135 3.20138 1.98379 3.16225 1.99273 3.14303C2.00167 3.12383 2.02357 3.08908 2.06995 3.07221L6.85111 1.33203C6.89754 1.31515 6.93667 1.32771 6.95589 1.3367C6.97512 1.3457 7.00982 1.36774 7.02652 1.41422L7.26688 2.08228H7.08203C6.55432 2.08228 6.125 2.51161 6.125 3.03931V4.05103H2.28263L1.98833 3.24773ZM10.9102 3.03929V4.05101H6.94531V3.03929C6.94531 2.9639 7.00664 2.90257 7.08203 2.90257H10.7734C10.8488 2.90257 10.9102 2.9639 10.9102 3.03929ZM11.6758 13.676H1.50391C1.12697 13.676 0.820312 13.3693 0.820312 12.9924V5.55491C0.820312 5.17798 1.12697 4.87132 1.50391 4.87132H11.6758C12.0527 4.87132 12.3594 5.17798 12.3594 5.55491V7.19554H10.8555C9.72467 7.19554 8.80469 8.11552 8.80469 9.24632C8.80469 10.3771 9.72467 11.2971 10.8555 11.2971H12.3594V12.9924C12.3594 13.3693 12.0527 13.676 11.6758 13.676Z" fill="black"/>
<path d="M10.8555 9.65723C11.082 9.65723 11.2656 9.47359 11.2656 9.24707C11.2656 9.02055 11.082 8.83691 10.8555 8.83691C10.6289 8.83691 10.4453 9.02055 10.4453 9.24707C10.4453 9.47359 10.6289 9.65723 10.8555 9.65723Z" fill="black"/>
</g>
<defs>
<clipPath id="clip0_726_1309">
<rect width="14" height="14" fill="white" transform="translate(0 0.5)"/>
</clipPath>
</defs>
</svg>
