<svg width="24" height="25" viewBox="0 0 24 25" fill="none" xmlns="http://www.w3.org/2000/svg">
<circle cx="12" cy="12.5" r="12" fill="black"/>
<path d="M16.5046 16.578L13.4546 11.788L16.4406 8.5035C16.5454 8.38539 16.5994 8.23075 16.5909 8.07309C16.5825 7.91544 16.5122 7.76748 16.3953 7.66129C16.2785 7.55511 16.1245 7.49926 15.9668 7.50585C15.809 7.51244 15.6602 7.58094 15.5526 7.6965L12.7891 10.7385L10.9046 7.778C10.8505 7.69285 10.7757 7.62273 10.6873 7.57414C10.5988 7.52555 10.4996 7.50005 10.3986 7.5H7.99864C7.89116 7.50005 7.78566 7.52897 7.69318 7.58374C7.6007 7.6385 7.52463 7.71711 7.47292 7.81133C7.42121 7.90555 7.39576 8.01194 7.39923 8.11936C7.40269 8.22679 7.43496 8.33131 7.49264 8.422L10.5426 13.212L7.55464 16.4965C7.50054 16.5546 7.45851 16.6229 7.43099 16.6974C7.40347 16.7718 7.39101 16.851 7.39432 16.9304C7.39764 17.0097 7.41666 17.0876 7.4503 17.1595C7.48393 17.2314 7.53151 17.296 7.59027 17.3494C7.64903 17.4028 7.7178 17.444 7.7926 17.4706C7.86741 17.4972 7.94675 17.5087 8.02603 17.5045C8.10531 17.5002 8.18296 17.4802 8.25448 17.4457C8.32599 17.4112 8.38995 17.3629 8.44264 17.3035L11.2081 14.2615L13.0926 17.222C13.1468 17.3072 13.2216 17.3773 13.31 17.4259C13.3984 17.4745 13.4977 17.5 13.5986 17.5H15.9986C16.1061 17.5 16.2116 17.471 16.3041 17.4163C16.3966 17.3615 16.4726 17.2829 16.5244 17.1887C16.5761 17.0944 16.6015 16.9881 16.598 16.8806C16.5946 16.7732 16.5623 16.6687 16.5046 16.578ZM13.9281 16.3L9.09164 8.7H10.0691L14.9056 16.3H13.9281Z" fill="white"/>
</svg>
